<svg xmlns="http://www.w3.org/2000/svg" width="428.128" height="429.663" viewBox="0 0 428.128 429.663">
  <g id="Pokeball" transform="translate(-95.533 -11.102)">
    <g id="Group_3" data-name="Group 3" transform="translate(95.533 11.102)">
      <path id="Path_31" data-name="Path 31" d="M242.866,191.389l-146.734-.138,2.011-9.432,1.811-7.3,2.012-7.091,2.111-6.575,1.811-5.1,1.812-4.819,1.978-4.889,2.247-5.2,1.676-3.666,1.241-2.581,1.509-3.082,1.643-3.167,1.408-2.65,1.559-2.84,1.575-2.771,1.56-2.686,1.946-3.167,1.744-2.754,1.81-2.788,1.844-2.737,2.567-3.667,2.4-3.287,2.18-2.909,2.481-3.184,2.464-3.031,2.348-2.8,2.615-3.012,2.365-2.634,2.916-3.133,3.252-3.34,3.723-3.666,3.488-3.287,3.285-2.977,2.834-2.463,3.52-2.944,3.856-3.1,3.689-2.822,4.428-3.236,4.123-2.856,3.722-2.461,4.694-2.945,4.6-2.719,5.968-3.322,5.064-2.633,4.762-2.289,4.308-1.98,4.677-2.014,5.349-2.133,6.657-2.411,5.614-1.859,5.668-1.7,5.751-1.548,5.549-1.309,4.393-.946,5.449-1.032,6.438-1.033,7.244-.912,6.47-.6,6.154-.378,5.148-.205,4.827-.07,5.131.051,5.432.19,5.649.344,5.484.482,4.443.482,4.677.62,4.278.654,4.257.74,3.873.757,5.163,1.137,4.644,1.118,3.991,1.068,4.628,1.342,4.476,1.4,5.364,1.825,5.266,1.961,4.562,1.825,3.7,1.549,3.689,1.653,3.3,1.549,3.2,1.584L406.4,34.8l2.565,1.341,2.481,1.361,3.05,1.686L418.4,41.5l3.469,2.133,3.923,2.513,4.142,2.789,4.208,3,4.057,3.012,4.342,3.409,4.494,3.735L451.85,66.3l3.906,3.58,4.394,4.269,4.812,4.974,3.655,3.978,3.537,4.043,3.586,4.322,3.538,4.492,3.018,4.028,2.65,3.683,2.514,3.65,2.315,3.493,2.949,4.7,2.717,4.6,2.7,4.785,2.666,5.061,2.414,4.8,2.329,5.008,2.046,4.614,1.727,4.2,1.29,3.253,2.147,5.819,1.608,4.682,1.241,3.941,1.09,3.6.989,3.477.906,3.392.954,3.993.838,3.545s1.19,5.63,1.208,5.854H373.337l-1.593-2.359-1.459-2.048-1.474-1.911-1.644-1.979-1.946-2.239-1.742-1.841-2.03-2.014-2.129-1.979-1.978-1.671-1.963-1.583-1.979-1.5-2.245-1.565-2.13-1.412-2.466-1.464-2.414-1.359-2.648-1.343-3-1.36s-4.291-1.7-4.577-1.789c0,0-3.605-1.172-4.073-1.325l-3.941-1.052-3.453-.7-3.267-.55-2.718-.328s-3.689-.328-4.51-.343l-3.906-.087-3.37.1-3.89.293-3,.363-3,.481-3.236.671-3.469.86-3.1.965s-3.2,1.067-3.721,1.309c0,0-2.751,1.135-3.488,1.445,0,0-3.437,1.635-4.258,2.048l-2.851,1.566-3.169,1.892-3.218,2.136s-3.32,2.46-3.4,2.564c0,0-2.883,2.41-3.807,3.236l-2.044,1.893-2.248,2.29s-2.061,2.254-2.414,2.667l-2.162,2.582-2.162,2.874S243.067,190.8,242.866,191.389Z" transform="translate(-95.584 -11.102)" fill="rgba(245,245,245,0.2)"/>
      <path id="Path_32" data-name="Path 32" d="M374.366,288.926l143.515-.165-1.947,9.163-1.756,7.088-1.954,6.889-2.053,6.389-1.761,4.95-1.761,4.682-1.925,4.75-2.187,5.052-1.633,3.564L499.7,343.8l-1.471,2.992-1.6,3.081-1.372,2.576-1.52,2.761L492.2,357.9l-1.52,2.61-1.9,3.08-1.7,2.677-1.764,2.711-1.8,2.661-2.5,3.566-2.338,3.195-2.126,2.83-2.42,3.1-2.405,2.947L469.439,390l-2.551,2.929-2.309,2.562-2.845,3.047-3.175,3.248-3.634,3.568-3.4,3.2-3.207,2.9-2.766,2.394-3.438,2.865-3.765,3.017-3.6,2.749-4.322,3.151-4.029,2.782-3.635,2.4-4.583,2.869-4.488,2.647-5.83,3.239-4.949,2.567-4.651,2.233-4.211,1.929-4.571,1.967-5.228,2.081-6.5,2.354-5.489,1.815-5.54,1.665-5.621,1.517-5.424,1.281-4.293.929-5.329,1.013-6.294,1.016-7.082.9-6.329.6-6.018.379-5.034.211-4.722.078-5.019-.039-5.313-.174-5.526-.322-5.364-.456L285,462.645l-4.576-.594-4.182-.625-4.168-.711-3.789-.726-5.053-1.093-4.543-1.077-3.906-1.027-4.529-1.3-4.381-1.346-5.251-1.76-5.153-1.9L231,448.736l-3.627-1.5-3.611-1.6-3.234-1.5-3.134-1.53-2.661-1.332-2.511-1.3-2.43-1.316-2.988-1.631-3.824-2.23-3.4-2.064-3.843-2.433-4.056-2.7-4.121-2.9-3.975-2.916-4.254-3.3-4.4-3.618-4.715-4.084-3.829-3.468-4.305-4.135-4.716-4.82-3.583-3.854-3.468-3.919-3.517-4.189-3.469-4.355-2.96-3.9-2.6-3.571-2.467-3.538-2.27-3.387-2.9-4.556-2.665-4.456L124.823,354l-2.618-4.91-2.371-4.656-2.289-4.859-2.011-4.474-1.7-4.075-1.269-3.155-2.11-5.645-1.584-4.542-1.222-3.824-1.072-3.49L105.605,307l-.893-3.29-.942-3.875-.827-3.44s-1.176-5.462-1.194-5.68l145.009-.3,1.563,2.287,1.43,1.986,1.446,1.849,1.611,1.92,1.908,2.169,1.709,1.784,1.989,1.951,2.086,1.917,1.939,1.618,1.921,1.531,1.939,1.452,2.2,1.516,2.086,1.366L273,315.172l2.363,1.316,2.594,1.3,2.938,1.314s4.2,1.645,4.48,1.729c0,0,3.528,1.128,3.988,1.279l3.855,1.012,3.379.676,3.2.528,2.657.313s3.609.31,4.412.326l3.821.074,3.3-.107,3.8-.291,2.935-.357,2.934-.474,3.165-.658,3.391-.844,3.032-.943s3.131-1.043,3.638-1.278c0,0,2.687-1.108,3.408-1.411,0,0,3.358-1.595,4.16-2l2.785-1.528,3.1-1.844,3.144-2.078s3.242-2.4,3.325-2.5c0,0,2.816-2.347,3.715-3.151l2-1.842,2.191-2.227s2.014-2.194,2.358-2.594l2.109-2.512,2.11-2.8S374.17,289.5,374.366,288.926Z" transform="translate(-96.056 -34.432)" fill="rgba(245,245,245,0.2)"/>
      <g id="Group_2" data-name="Group 2" transform="translate(0 0.536)">
        <g id="Group_1" data-name="Group 1">
          <circle id="Ellipse_1" data-name="Ellipse 1" cx="214.064" cy="214.064" r="214.064" fill="rgba(0,0,0,0)"/>
        </g>
      </g>
      <circle id="Ellipse_3" data-name="Ellipse 3" cx="40.202" cy="40.202" r="40.202" transform="translate(173.34 173.876)" fill="rgba(245,245,245,0.2)"/>
      <line id="Line_1" data-name="Line 1" x1="160.287" transform="translate(3.133 177.53)" fill="none"/>
      <line id="Line_2" data-name="Line 2" x1="160.287" transform="translate(6.266 255.324)" fill="none"/>
      <line id="Line_3" data-name="Line 3" x1="160.287" transform="translate(264.186 176.486)" fill="none"/>
      <line id="Line_4" data-name="Line 4" x1="160.287" transform="translate(261.575 254.28)" fill="none"/>
      <path id="Path_33" data-name="Path 33" d="M268.528,208.2" transform="translate(-110.069 -27.663)" fill="#231f20"/>
    </g>
  </g>
</svg>
